<?xml version="1.0" encoding="UTF-8" standalone="no"?>
<svg
   xmlns:dc="http://purl.org/dc/elements/1.1/"
   xmlns:cc="http://creativecommons.org/ns#"
   xmlns:rdf="http://www.w3.org/1999/02/22-rdf-syntax-ns#"
   xmlns:svg="http://www.w3.org/2000/svg"
   xmlns="http://www.w3.org/2000/svg"
   xmlns:xlink="http://www.w3.org/1999/xlink"
   xmlns:sodipodi="http://sodipodi.sourceforge.net/DTD/sodipodi-0.dtd"
   xmlns:inkscape="http://www.inkscape.org/namespaces/inkscape"
   width="1980.2438"
   height="1669.4813"
   viewBox="0 0 1980.2438 1669.4813"
   version="1.1"
   id="svg37"
   sodipodi:docname="airplane.svg"
   inkscape:version="0.92.4 5da689c313, 2019-01-14">
  <metadata
     id="metadata41">
    <rdf:RDF>
      <cc:Work
         rdf:about="">
        <dc:format>image/svg+xml</dc:format>
        <dc:type
           rdf:resource="http://purl.org/dc/dcmitype/StillImage" />
        <dc:title>Logo</dc:title>
      </cc:Work>
    </rdf:RDF>
  </metadata>
  <sodipodi:namedview
     pagecolor="#ffffff"
     bordercolor="#666666"
     borderopacity="1"
     objecttolerance="10"
     gridtolerance="10"
     guidetolerance="10"
     inkscape:pageopacity="0"
     inkscape:pageshadow="2"
     inkscape:window-width="3770"
     inkscape:window-height="2108"
     id="namedview39"
     showgrid="false"
     fit-margin-top="0"
     fit-margin-left="0"
     fit-margin-right="0"
     fit-margin-bottom="0"
     inkscape:zoom="0.17634971"
     inkscape:cx="1608.3231"
     inkscape:cy="1387.3305"
     inkscape:window-x="3142"
     inkscape:window-y="52"
     inkscape:window-maximized="1"
     inkscape:current-layer="svg37" />
  <!-- Generator: Sketch 53.2 (72643) - https://sketchapp.com -->
  <title
     id="title2">Logo</title>
  <desc
     id="desc4">Created with Sketch.</desc>
  <defs
     id="defs16">
    <linearGradient
       x1="1407.9896"
       y1="246.93132"
       x2="1407.9896"
       y2="2037.0291"
       id="linearGradient-1"
       gradientTransform="scale(0.91818927,1.0891001)"
       gradientUnits="userSpaceOnUse">
      <stop
         stop-color="#FDDD7F"
         offset="0%"
         id="stop6" />
      <stop
         stop-color="#E9B10E"
         offset="100%"
         id="stop8" />
    </linearGradient>
    <linearGradient
       x1="1"
       y1="0.17732076"
       x2="0.048297156"
       y2="0.78641456"
       id="linearGradient-2">
      <stop
         stop-color="#FFD65D"
         offset="0%"
         id="stop11" />
      <stop
         stop-color="#E9B20F"
         offset="100%"
         id="stop13" />
    </linearGradient>
    <linearGradient
       inkscape:collect="always"
       xlink:href="#linearGradient-2"
       id="linearGradient850"
       x1="1301.4182"
       y1="231.57797"
       x2="63.08482"
       y2="1024.1165"
       gradientTransform="scale(1.1157059,0.89629351)"
       gradientUnits="userSpaceOnUse" />
  </defs>
  <g
     id="Page-1"
     style="fill:none;fill-rule:evenodd;stroke:none;stroke-width:1"
     transform="rotate(36.755233,4001.5946,-440.23104)">
    <g
       id="LOGO"
       transform="translate(1061,1127)">
      <path
         d="m 2127.5724,1668.184 -683.2423,-659.872 c 0,0 -24.227,-21.19855 -50.0459,-80.61598 l 10e-5,0.37623 c -1.7563,-119.76637 -5.665,-235.55138 -12.9501,-335.78622 -13.731,-189.46486 -51.1068,-323.34626 -88.7573,-323.3531 l -0.06,-10e-6 c -37.6505,-0.007 -74.9777,133.861 -88.6399,323.32088 -7.2487,100.23221 -11.1153,216.0158 -12.8281,335.78154 v -0.37623 c -25.8273,59.40805 -50.0466,80.59789 -50.0466,80.59789 l -682.97272,659.6238 12.51607,86.6289 721.56435,-417.8274 v -0.1881 c 4.0534,253.8922 12.4646,461.9794 12.4707,495.7146 0,22.5423 13.2079,108.4816 29.7913,196.522 l -215.1673,164.5295 0.01,50.8849 255.084,-36.2283 c 7.4211,25.4908 13.9433,41.3249 18.6085,41.3258 4.6652,8e-4 11.1816,-15.8309 18.5935,-41.3191 l 255.0972,36.321 -0.01,-50.8849 -215.2271,-164.6076 c 16.5515,-88.0345 29.724,-173.9689 29.7199,-196.5113 -0.01,-33.7351 8.3295,-241.8193 12.2907,-495.7414 v 0.2195 l 721.7162,418.0895 z"
         id="Fill-4"
         transform="rotate(53.726252,1292.8011,1259.0878)"
         inkscape:connector-curvature="0"
         style="fill:url(#linearGradient-1)" />
      <g
         id="Group"
         transform="translate(3797,1258)"
         style="fill:url(#linearGradient850);fill-rule:nonzero" />
    </g>
  </g>
</svg>
