<?xml version="1.0" encoding="UTF-8" standalone="no"?>
<svg
   xmlns:dc="http://purl.org/dc/elements/1.1/"
   xmlns:cc="http://creativecommons.org/ns#"
   xmlns:rdf="http://www.w3.org/1999/02/22-rdf-syntax-ns#"
   xmlns:svg="http://www.w3.org/2000/svg"
   xmlns="http://www.w3.org/2000/svg"
   xmlns:xlink="http://www.w3.org/1999/xlink"
   xmlns:sodipodi="http://sodipodi.sourceforge.net/DTD/sodipodi-0.dtd"
   xmlns:inkscape="http://www.inkscape.org/namespaces/inkscape"
   width="6768.2173"
   height="1764.8602"
   viewBox="0 0 6768.2173 1764.8602"
   version="1.1"
   id="svg37"
   sodipodi:docname="Logo (2).svg"
   inkscape:version="0.92.4 5da689c313, 2019-01-14">
  <metadata
     id="metadata41">
    <rdf:RDF>
      <cc:Work
         rdf:about="">
        <dc:format>image/svg+xml</dc:format>
        <dc:type
           rdf:resource="http://purl.org/dc/dcmitype/StillImage" />
        <dc:title>Logo</dc:title>
      </cc:Work>
    </rdf:RDF>
  </metadata>
  <sodipodi:namedview
     pagecolor="#ffffff"
     bordercolor="#666666"
     borderopacity="1"
     objecttolerance="10"
     gridtolerance="10"
     guidetolerance="10"
     inkscape:pageopacity="0"
     inkscape:pageshadow="2"
     inkscape:window-width="3072"
     inkscape:window-height="1728"
     id="namedview39"
     showgrid="false"
     fit-margin-top="0"
     fit-margin-left="0"
     fit-margin-right="0"
     fit-margin-bottom="0"
     inkscape:zoom="0.17634971"
     inkscape:cx="3047.7444"
     inkscape:cy="1439.6947"
     inkscape:window-x="0"
     inkscape:window-y="0"
     inkscape:window-maximized="1"
     inkscape:current-layer="svg37" />
  <!-- Generator: Sketch 53.2 (72643) - https://sketchapp.com -->
  <title
     id="title2">Logo</title>
  <desc
     id="desc4">Created with Sketch.</desc>
  <defs
     id="defs16">
    <linearGradient
       x1="1407.9896"
       y1="246.93132"
       x2="1407.9896"
       y2="2037.0291"
       id="linearGradient-1"
       gradientTransform="scale(0.91818927,1.0891001)"
       gradientUnits="userSpaceOnUse">
      <stop
         stop-color="#FDDD7F"
         offset="0%"
         id="stop6" />
      <stop
         stop-color="#E9B10E"
         offset="100%"
         id="stop8" />
    </linearGradient>
    <linearGradient
       x1="1"
       y1="0.17732076"
       x2="0.048297156"
       y2="0.78641456"
       id="linearGradient-2">
      <stop
         stop-color="#FFD65D"
         offset="0%"
         id="stop11" />
      <stop
         stop-color="#E9B20F"
         offset="100%"
         id="stop13" />
    </linearGradient>
    <linearGradient
       inkscape:collect="always"
       xlink:href="#linearGradient-2"
       id="linearGradient848"
       x1="1301.4182"
       y1="231.57797"
       x2="63.08482"
       y2="1024.1165"
       gradientTransform="scale(1.1157059,0.89629351)"
       gradientUnits="userSpaceOnUse" />
    <linearGradient
       inkscape:collect="always"
       xlink:href="#linearGradient-2"
       id="linearGradient850"
       x1="1301.4182"
       y1="231.57797"
       x2="63.08482"
       y2="1024.1165"
       gradientTransform="scale(1.1157059,0.89629351)"
       gradientUnits="userSpaceOnUse" />
  </defs>
  <g
     id="Page-1"
     style="fill:none;fill-rule:evenodd;stroke:none;stroke-width:1"
     transform="translate(-1397.7827,-1791.1398)">
    <g
       id="LOGO"
       transform="translate(1061,1127)">
      <path
         d="m 2127.5724,1668.184 -683.2423,-659.872 c 0,0 -24.227,-21.19855 -50.0459,-80.61598 l 10e-5,0.37623 c -1.7563,-119.76637 -5.665,-235.55138 -12.9501,-335.78622 -13.731,-189.46486 -51.1068,-323.34626 -88.7573,-323.3531 l -0.06,-10e-6 c -37.6505,-0.007 -74.9777,133.861 -88.6399,323.32088 -7.2487,100.23221 -11.1153,216.0158 -12.8281,335.78154 v -0.37623 c -25.8273,59.40805 -50.0466,80.59789 -50.0466,80.59789 l -682.97272,659.6238 12.51607,86.6289 721.56435,-417.8274 v -0.1881 c 4.0534,253.8922 12.4646,461.9794 12.4707,495.7146 0,22.5423 13.2079,108.4816 29.7913,196.522 l -215.1673,164.5295 0.01,50.8849 255.084,-36.2283 c 7.4211,25.4908 13.9433,41.3249 18.6085,41.3258 4.6652,8e-4 11.1816,-15.8309 18.5935,-41.3191 l 255.0972,36.321 -0.01,-50.8849 -215.2271,-164.6076 c 16.5515,-88.0345 29.724,-173.9689 29.7199,-196.5113 -0.01,-33.7351 8.3295,-241.8193 12.2907,-495.7414 v 0.2195 l 721.7162,418.0895 z"
         id="Fill-4"
         transform="rotate(53.726252,1292.8011,1259.0878)"
         inkscape:connector-curvature="0"
         style="fill:url(#linearGradient-1)" />
      <path
         d="M 1672,2425 V 1257 h 242.9152 c 53.2568,0 98.6331,8.2022 136.1303,24.6067 37.4971,16.4046 68.2008,38.2771 92.1121,65.618 23.9112,27.341 41.0292,58.7826 51.3545,94.3259 10.3253,35.5432 15.4879,72.453 15.4879,110.7303 v 42.6517 c 0,31.7155 -2.4454,58.5092 -7.3364,80.382 -4.8909,21.8728 -12.2272,41.0112 -22.009,57.4157 -18.4769,30.6219 -46.7352,56.8688 -84.7758,78.7416 39.1275,18.5919 67.9292,45.9324 86.4061,82.0225 18.4768,36.0901 27.7151,85.303 27.7151,147.6404 v 65.618 c 0,102.802 -24.726,181.5428 -74.1788,236.2247 -49.4528,54.682 -128.5217,82.0225 -237.2091,82.0225 z m 166.2909,-541.3483 v 374.0225 h 71.7333 c 33.6931,0 60.0494,-4.9213 79.0697,-14.7641 19.0203,-9.8427 33.4212,-23.513 43.2031,-41.0112 9.7818,-17.4982 15.7595,-38.2771 17.9333,-62.3371 2.1738,-24.06 3.2606,-50.307 3.2606,-78.7416 0,-29.5282 -1.6303,-55.2283 -4.8909,-77.1011 -3.2606,-21.8728 -9.7818,-40.4643 -19.5636,-55.7753 -10.8688,-15.3109 -25.5414,-26.5205 -44.0182,-33.6292 -18.4769,-7.1086 -42.9312,-10.6629 -73.3636,-10.6629 z m 0,-469.1685 v 321.528 h 74.994 c 55.4305,0 92.6554,-13.9436 111.6757,-41.8314 19.0203,-27.8878 28.5303,-68.6252 28.5303,-122.2135 0,-52.4946 -10.5968,-91.865 -31.7909,-118.1124 -21.194,-26.2473 -59.5058,-39.3707 -114.9364,-39.3707 z"
         id="Combined-Shape"
         inkscape:connector-curvature="0"
         style="fill:#ffffff;fill-rule:nonzero" />
      <polygon
         id="Path"
         points="2328,2425 2328,1257 2494,1257 2494,2425 "
         style="fill:#ffffff;fill-rule:nonzero" />
      <polygon
         id="polygon22"
         points="3131,2257.6742 3131,2425 2634,2425 2634,1257 2800.7566,1257 2800.7566,2257.6742 "
         style="fill:#ffffff;fill-rule:nonzero" />
      <polygon
         id="polygon24"
         points="3389.7566,1414.4832 3389.7566,1757.3371 3677.4934,1757.3371 3677.4934,1914.8202 3389.7566,1914.8202 3389.7566,2257.6742 3720,2257.6742 3720,2425 3223,2425 3223,1257 3720,1257 3720,1414.4832 "
         style="fill:#ffffff;fill-rule:nonzero" />
      <g
         id="Group"
         transform="translate(3797,1258)"
         style="fill:url(#linearGradient850);fill-rule:nonzero">
        <path
           d="M 274.18507,999.92686 H 412.27093 C 399.17639,967.79988 392.62921,930.04968 392.62921,886.67539 V 281.03413 c 0,-46.17501 8.12628,-86.98022 24.37907,-122.41685 16.25279,-35.43664 37.92285,-64.966722 65.01084,-88.591144 C 508.02359,47.47555 537.54905,30.29441 570.59639,18.482198 602.42411,7.1059215 634.50262,1.2079421 666.83281,0.78810196 l -0.0357,-0.0241322 H 1452 V 158.00928 H 1259.0899 V 1167 H 1092.3371 V 158.00928 H 923.81325 c 0.0933,0.20247 0.18655,0.40514 0.27959,0.608 16.2528,35.43663 24.37907,76.24184 24.37907,122.41685 v 605.64126 c 0,48.32269 -8.12627,89.6648 -24.37907,124.02761 -16.25279,34.3628 -37.3811,62.8191 -63.38557,85.3696 -27.08798,23.6245 -57.1552,41.3425 -90.20254,53.1547 -33.04734,11.8122 -66.36506,17.7727 -99.95417,17.7727 -2.15207,0 -4.30302,-0.024 -6.45286,-0.073 L 664.171,1167 H 273.95337 l -0.0349,-0.032 c -32.1424,-0.4839 -64.03599,-6.4293 -95.68165,-17.7405 -33.04734,-11.8122 -62.5728,-29.5302 -88.57727,-53.1547 C 62.571584,1073.5221 40.90152,1045.0658 24.648729,1010.703 11.736825,983.40374 3.9538793,951.69956 1.2997682,915.58985 L 0.26966292,914.64 V 0.76396979 H 167.02247 V 22.751313 916.88501 c 4.32305,18.79385 12.92372,35.43617 25.80201,49.92697 18.533,20.85354 45.65319,31.89183 81.36059,33.11488 z M 556.11236,884.26084 c 0,39.62652 11.33314,68.81048 33.99976,87.55275 22.66661,18.74228 49.47916,28.11327 80.43844,28.11327 30.95928,0 57.77183,-9.37099 80.43845,-28.11327 22.66661,-18.74227 33.99975,-47.92623 33.99975,-87.55275 V 280.22718 c 0,-39.62652 -11.33314,-68.81047 -33.99975,-87.55275 -22.66662,-18.74227 -49.47917,-28.11327 -80.43845,-28.11327 -30.95928,0 -57.77183,9.371 -80.43844,28.11327 -22.66662,18.74228 -33.99976,47.92623 -33.99976,87.55275 z"
           id="path26"
           inkscape:connector-curvature="0"
           style="fill:url(#linearGradient848)" />
      </g>
      <path
         d="M 5334,2425 V 1257 h 251.9184 c 46.103,0 86.7169,6.0149 121.8429,18.0449 35.1261,12.0301 66.9586,33.3557 95.4985,63.9776 28.5399,30.6219 48.298,66.438 59.2749,107.4494 10.9769,41.0115 16.4653,96.5128 16.4653,166.5056 0,52.4947 -3.0186,96.7864 -9.0559,132.8764 -6.0373,36.0901 -18.9349,69.9924 -38.6933,101.7079 -23.0515,38.2773 -53.7864,68.0785 -92.2055,89.4045 -38.4191,21.3259 -88.9121,31.9888 -151.4804,31.9888 h -85.6193 V 2425 Z m 167.9456,-1010.5168 v 396.9887 h 80.6798 c 34.0284,0 60.3725,-4.9213 79.0332,-14.764 18.6607,-9.8428 32.3816,-23.5131 41.1631,-41.0113 8.7816,-16.4045 13.9955,-36.6365 15.642,-60.6966 1.6466,-24.06 2.4698,-50.8538 2.4698,-80.382 0,-27.341 -0.5488,-53.3145 -1.6465,-77.9214 -1.0977,-24.6068 -6.0372,-46.2059 -14.8187,-64.7977 -8.7815,-18.5919 -21.9536,-32.809 -39.5166,-42.6517 -17.5631,-9.8427 -42.8095,-14.764 -75.7402,-14.764 z"
         id="path29"
         inkscape:connector-curvature="0"
         style="fill:#ffffff;fill-rule:nonzero" />
      <path
         d="m 5941,1531.0718 c 0,-46.8013 8.1871,-88.16 24.5614,-124.0773 16.3743,-35.9173 38.2065,-65.848 65.4971,-89.7928 26.1989,-22.8565 55.9452,-40.2707 89.2397,-52.2431 C 6153.5928,1252.9861 6187.1597,1247 6221,1247 c 33.8403,0 67.4072,5.9861 100.7017,17.9586 33.2946,11.9724 63.5867,29.3866 90.8772,52.2431 26.199,23.9448 47.4854,53.8755 63.8597,89.7928 16.3743,35.9173 24.5614,77.276 24.5614,124.0773 v 613.8564 c 0,48.9781 -8.1871,90.881 -24.5614,125.7099 -16.3743,34.8289 -37.6607,63.6712 -63.8597,86.5277 -27.2905,23.9448 -57.5826,41.9032 -90.8772,53.8756 C 6288.4072,2423.0139 6254.8403,2429 6221,2429 c -33.8403,0 -67.4072,-5.9861 -100.7018,-17.9586 -33.2945,-11.9724 -63.0408,-29.9308 -89.2397,-53.8756 -27.2906,-22.8565 -49.1228,-51.6988 -65.4971,-86.5277 C 5949.1871,2235.8092 5941,2193.9063 5941,2144.9282 Z m 167.0175,613.8564 c 0,40.2709 11.189,69.9294 33.5673,88.9765 22.3783,19.0471 48.8497,28.5704 79.4152,28.5704 30.5654,0 57.0369,-9.5233 79.4152,-28.5704 22.3783,-19.0471 33.5673,-48.7056 33.5673,-88.9765 v -613.8564 c 0,-40.2709 -11.189,-69.9294 -33.5673,-88.9765 -22.3783,-19.047 -48.8498,-28.5704 -79.4152,-28.5704 -30.5655,0 -57.0369,9.5234 -79.4152,28.5704 -22.3783,19.0471 -33.5673,48.7056 -33.5673,88.9765 z"
         id="path31"
         inkscape:connector-curvature="0"
         style="fill:#ffffff;fill-rule:nonzero" />
      <polygon
         id="polygon33"
         points="7105,2257.6742 7105,2425 6608,2425 6608,1257 6774.7566,1257 6774.7566,2257.6742 "
         style="fill:#ffffff;fill-rule:nonzero" />
    </g>
  </g>
</svg>
